<?xml version="1.0" standalone="no"?>
<!DOCTYPE svg PUBLIC "-//W3C//DTD SVG 20010904//EN"
 "http://www.w3.org/TR/2001/REC-SVG-20010904/DTD/svg10.dtd">
<svg version="1.0" xmlns="http://www.w3.org/2000/svg"
 width="1022.000000pt" height="252.000000pt" viewBox="0 0 1022.000000 252.000000"
 preserveAspectRatio="xMidYMid meet">

<g transform="translate(0.000000,252.000000) scale(0.100000,-0.100000)"
fill="#000000" stroke="none">
<path d="M1119 2376 c-3 -3 -50 -10 -104 -17 -156 -17 -332 -82 -465 -172 -66
-45 -206 -183 -255 -252 -63 -89 -155 -282 -155 -327 0 -9 133 -3 171 8 8 2
26 30 39 61 55 134 213 314 343 391 325 194 747 155 1014 -93 l64 -60 -275
-228 -275 -227 -60 35 c-32 19 -61 35 -64 35 -3 0 -12 -17 -20 -37 -9 -21 -66
-141 -127 -268 -156 -319 -280 -577 -280 -582 0 -1 125 133 277 299 153 167
292 319 310 338 18 19 146 160 285 312 139 152 258 277 263 277 15 1 90 -114
124 -190 33 -74 28 -71 158 -85 l63 -7 -24 69 c-31 92 -88 205 -141 279 -50
70 -189 207 -258 254 -129 88 -302 152 -458 171 -52 6 -105 13 -119 16 -14 3
-28 3 -31 0z"/>
<path d="M5440 1964 c-101 -21 -186 -69 -261 -143 -121 -122 -177 -259 -186
-462 -19 -397 149 -666 452 -724 97 -19 153 -19 250 0 204 39 366 193 420 401
25 97 27 94 -68 94 l-84 0 -17 -62 c-37 -134 -115 -227 -222 -267 -50 -19 -74
-22 -160 -19 -89 3 -108 7 -166 36 -79 39 -130 92 -171 179 -41 89 -56 168
-56 298 -1 129 17 224 58 311 81 172 272 258 472 210 114 -26 182 -86 230
-201 l23 -55 83 0 84 0 -6 38 c-20 116 -133 265 -245 322 -115 58 -286 76
-430 44z"/>
<path d="M2720 1305 l0 -645 410 0 410 0 0 75 0 75 -325 0 -325 0 -2 568 -3
567 -82 3 -83 3 0 -646z"/>
<path d="M6330 1305 l0 -645 75 0 75 0 0 243 c0 359 16 448 91 511 127 107
317 72 348 -64 6 -26 11 -183 11 -367 l0 -323 81 0 80 0 -4 368 c-2 255 -7
378 -15 404 -22 64 -72 120 -137 153 -55 27 -69 30 -160 30 -89 0 -106 -4
-157 -28 -31 -15 -72 -45 -92 -67 -20 -22 -38 -40 -41 -40 -3 0 -5 106 -5 235
l0 235 -75 0 -75 0 0 -645z"/>
<path d="M9227 1943 c-4 -3 -7 -294 -7 -645 l0 -638 75 0 75 0 0 174 0 174 69
61 68 60 144 -234 144 -235 102 0 102 0 -185 285 c-101 157 -184 291 -184 298
0 7 77 86 170 176 94 89 170 167 170 172 0 5 -42 9 -92 9 l-93 -1 -200 -194
c-110 -107 -203 -194 -207 -195 -5 0 -8 167 -8 370 l0 370 -68 0 c-38 0 -72
-3 -75 -7z"/>
<path d="M4560 1730 l0 -130 -65 0 -65 0 0 -65 0 -64 63 -3 62 -3 5 -355 c5
-332 6 -357 25 -389 32 -55 65 -73 142 -78 37 -3 84 -1 103 4 l35 9 0 60 0 59
-56 5 c-94 8 -89 -14 -89 361 l0 329 75 0 76 0 -3 63 -3 62 -72 3 -72 3 -3
127 -3 127 -77 3 -78 3 0 -131z"/>
<path d="M7613 1605 c-102 -22 -184 -78 -241 -164 -72 -107 -95 -185 -95 -326
-1 -168 38 -281 127 -371 222 -221 623 -125 704 169 l10 37 -76 0 -77 0 -29
-56 c-58 -110 -190 -161 -319 -122 -88 26 -160 135 -168 253 l-4 50 343 3 342
2 0 66 c0 85 -25 206 -56 266 -48 95 -163 176 -283 198 -68 13 -101 12 -178
-5z m209 -148 c68 -29 128 -119 142 -214 l6 -43 -260 0 -260 0 0 28 c0 101 84
209 190 243 34 12 141 3 182 -14z"/>
<path d="M8563 1606 c-106 -35 -191 -112 -242 -220 -42 -90 -55 -158 -55 -286
1 -93 5 -128 23 -180 42 -122 125 -221 219 -261 98 -43 259 -35 362 17 92 46
172 160 186 267 l7 47 -75 0 -74 0 -18 -56 c-25 -80 -93 -148 -163 -163 -53
-11 -133 -2 -172 18 -66 36 -120 152 -128 277 -10 152 38 312 110 366 74 57
202 64 276 15 39 -26 91 -111 91 -149 0 -16 9 -18 76 -18 l77 0 -6 51 c-7 59
-43 141 -81 186 -15 18 -57 47 -92 64 -59 30 -76 33 -172 36 -72 2 -121 -2
-149 -11z"/>
<path d="M3530 1596 c0 -3 77 -219 170 -480 94 -260 170 -480 170 -489 0 -33
-63 -164 -92 -191 -30 -27 -34 -28 -100 -22 l-68 6 0 -69 c0 -78 3 -81 95 -81
66 0 123 16 164 48 41 30 118 188 206 417 84 219 305 838 305 853 0 10 -20 12
-82 10 l-83 -3 -125 -372 c-69 -205 -128 -373 -131 -373 -4 0 -62 168 -130
373 l-124 372 -87 3 c-49 1 -88 0 -88 -2z"/>
<path d="M2024 1083 l-50 -4 -33 -78 c-79 -196 -216 -347 -402 -445 -447 -236
-990 -40 -1194 431 l-34 78 -86 9 c-47 5 -88 6 -91 3 -10 -9 35 -135 81 -227
196 -392 642 -627 1064 -562 169 27 303 78 439 169 189 126 332 314 408 537
36 106 44 99 -102 89z"/>
</g>
</svg>
